# xmcd
#
# Track frame offsets:
#	150
#	183
#	51658
#	103638
#	158810
#
# Disc length: 2719 seconds
# Revision: 0
# Processed by: cddbd v1.5.2PL0 Copyright (c) Steve Scherf et al.
# Submitted via: dBpowerAMP V12.0
#
DISCID=320a9d05
DTITLE=Bo Diddley - Live
DYEAR=1975
DGENRE=Blues
TTITLE0=He's Hell Of A Man
TTITLE1=Don't Handle The Merchandise
TTITLE2=Get Up, Get Down
TTITLE3=Bad Dad
TTITLE4=Can I Put My Finger In It
EXTD=
EXTT0=
EXTT1=
EXTT2=
EXTT3=
EXTT4=
PLAYORDER=
